{"title":"Steve 'N' Seagulls - Live @ Trans Musicales (2015) 1080p","uid":14728324,"size":983274655,"categoryP":"video","categoryS":"music_videos","magnet":"?xt=urn:btih:197a2677a3bf63bf9c81f77c01d291b4cfec2422&amp;dn=Steve+%27N%27+Seagulls+-+Live+%40+Trans+Musicales+%282015%29+1080p&amp;tr=udp%3A%2F%2Ftracker.leechers-paradise.org%3A6969&amp;tr=udp%3A%2F%2Fzer0day.ch%3A1337&amp;tr=udp%3A%2F%2Fopen.demonii.com%3A1337&amp;tr=udp%3A%2F%2Ftracker.coppersurfer.tk%3A6969&amp;tr=udp%3A%2F%2Fexodus.desync.com%3A6969","seeders":1,"leechers":0,"uploader":"Iznogoud9","files":22,"time":1464570835,"description":"STEVE 'N' SEAGULLS - FULL CONCERT @ TRANS MUSICALES de RENNES\r\n(2015) (WEBRIP)\r\n\r\nA sample included.\r\n\r\nSteve 'n' Seagulls is a Finnish country band, playing bluegrass \r\nversions of well-known hard rock and metal songs.\r\n\r\nTRACK LISTING:\r\n\r\n2:26 Guns N' Roses - Paradise City \r\n7:07 Gary Moore - Over the Hills and Far Away \r\n11:40 Nightwish - Wishmaster \r\n16:30 Dio - Holy Diver \r\n20:03 Iron Maiden - The Trooper \r\n24:10 Pantera - Cemetary Gates \r\n30:12 AC/DC - You Shook Me All Night Long \r\n34:06 Led Zeppelin - Black Dog \r\n38:16 Metallica - Seek and Destroy \r\n44:05 Metallica - Nothing Else Matters \r\n50:08 Iron Maiden - Run to the Hills \r\n54:47 AD/DC - Thunderstruck \r\n1:01:32 Steppenwolf - Born to Be Wild/Hava Nagila\r\n\r\nThe concert is also included as mp3 audio, as an extra goodie.\r\n\r\nGeneral\r\nComplete name                            : Steve 'N' Seagulls- Live @ Trans Musicales (2015) 1080p x264 aac 2.0 [WEBRIP].mp4\r\nFormat                                   : MPEG-4\r\nFormat profile                           : Base Media / Version 2\r\nCodec ID                                 : mp42\r\nFile size                                : 834 MiB\r\nDuration                                 : 1h 11mn\r\nOverall bit rate mode                    : Variable\r\nOverall bit rate                         : 1 631 Kbps\r\nEncoded date                             : UTC 2016-05-29 12:04:58\r\nTagged date                              : UTC 2016-05-29 12:04:58\r\nWriting application                      : HandBrake 0.10.5 2016021100\r\n\r\nVideo\r\nID                                       : 1\r\nFormat                                   : AVC\r\nFormat/Info                              : Advanced Video Codec\r\nFormat profile                           :   \r\nFormat settings, CABAC                   : Yes\r\nFormat settings, ReFrames                : 4 frames\r\nCodec ID                                 : avc1\r\nCodec ID/Info                            : Advanced Video Coding\r\nDuration                                 : 1h 11mn\r\nBit rate                                 : 1 500 Kbps\r\nWidth                                    : 1 920 pixels\r\nHeight                                   : 1 080 pixels\r\nDisplay aspect ratio                     : 16:9\r\nFrame rate mode                          : Constant\r\nFrame rate                               : 25.000 fps\r\nColor space                              : YUV\r\nChroma subsampling                       : 4:2:0\r\nBit depth                                : 8 bits\r\nScan type                                : Progressive\r\nBits/(Pixel*Frame)                       : 0.029\r\nStream size                              : 767 MiB (92%)\r\nWriting library                          : x264 core 142 r2479 dd79a61\r\nEncoding settings                        : cabac=1 / ref=4 / deblock=1:0:0 / analyse=0x3:0x133 / me=umh / subme=9 / psy=1 / psy_rd=1.00:0.00 / mixed_ref=1 / me_range=16 / chroma_me=1 / trellis=2 / 8x8dct=1 / cqm=0 / deadzone=21,11 / fast_pskip=1 / chroma_qp_offset=-2 / threads=6 / lookahead_threads=1 / sliced_threads=0 / nr=0 / decimate=1 / interlaced=0 / bluray_compat=0 / constrained_intra=0 / bframes=3 / b_pyramid=2 / b_adapt=2 / b_bias=0 / direct=3 / weightb=1 / open_gop=0 / weightp=2 / keyint=250 / keyint_min=25 / scenecut=40 / intra_refresh=0 / rc_lookahead=60 / rc=2pass / mbtree=1 / bitrate=1500 / ratetol=1.0 / qcomp=0.60 / qpmin=0 / qpmax=69 / qpstep=4 / cplxblur=20.0 / qblur=0.5 / vbv_maxrate=62500 / vbv_bufsize=78125 / nal_hrd=none / filler=0 / ip_ratio=1.40 / aq=1:1.00\r\nEncoded date                             : UTC 2016-05-29 12:04:58\r\nTagged date                              : UTC 2016-05-29 12:04:58\r\nColor primaries                          : BT.709\r\nTransfer characteristics                 : BT.709\r\nMatrix coefficients                      : BT.709\r\n\r\nAudio\r\nID                                       : 2\r\nFormat                                   : AAC\r\nFormat/Info                              : Advanced Audio Codec\r\nFormat profile                           : LC\r\nCodec ID                                 : 40\r\nDuration                                 : 1h 11mn\r\nBit rate mode                            : Variable\r\nBit rate                                 : 126 Kbps\r\nChannel(s)                               : 2 channels\r\nChannel positions                        : Front: L R\r\nSampling rate                            : 44.1 KHz\r\nCompression mode                         : Lossy\r\nStream size                              : 64.2 MiB (8%)\r\nTitle                                    : aac 2.0\r\nEncoded date                             : UTC 2016-05-29 12:04:58\r\nTagged date                              : UTC 2016-05-29 12:04:58\r\n\r\nSCREENSHOTS:\r\n \nhttps://s33.postimg.org/r1ztte1jz/S_N_S_Screenshot_1.png \nhttps://s33.postimg.org/gy1x5r61r/S_N_S_Screenshot_2.png \nhttps://s33.postimg.org/mw6354tb3/S_N_S_Screenshot_3.png","torrent":{"xt":"urn:btih:197a2677a3bf63bf9c81f77c01d291b4cfec2422","amp;dn":"Steve+%27N%27+Seagulls+-+Live+%40+Trans+Musicales+%282015%29+1080p","amp;tr":["udp%3A%2F%2Ftracker.leechers-paradise.org%3A6969","udp%3A%2F%2Fzer0day.ch%3A1337","udp%3A%2F%2Fopen.demonii.com%3A1337","udp%3A%2F%2Ftracker.coppersurfer.tk%3A6969","udp%3A%2F%2Fexodus.desync.com%3A6969"],"infoHash":"197a2677a3bf63bf9c81f77c01d291b4cfec2422","infoHashBuffer":{"type":"Buffer","data":[25,122,38,119,163,191,99,191,156,129,247,124,1,210,145,180,207,236,36,34]},"announce":[],"urlList":[]}}